<?xml version="1.0" encoding="UTF-8" standalone="no"?>
<!DOCTYPE svg PUBLIC "-//W3C//DTD SVG 1.0//EN"
 "http://www.w3.org/TR/2001/REC-SVG-20010904/DTD/svg10.dtd" [
 <!ATTLIST svg xmlns:xlink CDATA #FIXED "http://www.w3.org/1999/xlink">
]>
<!-- Generated by Graphviz version 2.16 (Mon Nov 12 16:22:55 GMT 2007)
     For user: kazunori -->
<!-- Title: G Pages: 1 -->
<svg width="1935pt" height="250pt"
 viewBox="0.00 0.00 1935.00 250.00" xmlns="http://www.w3.org/2000/svg" xmlns:xlink="http://www.w3.org/1999/xlink">
<g id="graph0" class="graph" transform="scale(1 1) rotate(0) translate(4 246)">
<title>G</title>
<polygon style="fill:white;stroke:white;" points="-4,4 -4,-246 1931,-246 1931,4 -4,4"/>
<g id="cluster2" class="cluster"><title>cluster_1</title>
<polygon style="fill:none;stroke:black;" points="59,-88 59,-164 1095,-164 1095,-88 59,-88"/>
<text text-anchor="middle" x="577" y="-147.275" style="font-family:Times New Roman;font-size:14.00;">sample/build.xml</text>
</g>
<g id="node1" class="node"><title></title>
</g>
<!-- 22121384 -->
<g id="node3" class="node"><title>22121384</title>
<polygon style="fill:lightblue;stroke:black;" points="152.753,-132 67.2471,-132 67.2471,-128 63.2471,-128 63.2471,-124 67.2471,-124 67.2471,-104 63.2471,-104 63.2471,-100 67.2471,-100 67.2471,-96 152.753,-96 152.753,-132"/>
<polyline style="fill:none;stroke:black;" points="67.2471,-128 71.2471,-128 71.2471,-124 67.2471,-124 "/>
<polyline style="fill:none;stroke:black;" points="67.2471,-104 71.2471,-104 71.2471,-100 67.2471,-100 "/>
<text text-anchor="middle" x="110" y="-109.275" style="font-family:Times New Roman;font-size:14.00;">TOPLEVEL</text>
</g>
<!-- 22119080 -->
<g id="node4" class="node"><title>22119080</title>
<polygon style="fill:lightblue;stroke:black;" points="243,-132 189,-132 189,-128 185,-128 185,-124 189,-124 189,-104 185,-104 185,-100 189,-100 189,-96 243,-96 243,-132"/>
<polyline style="fill:none;stroke:black;" points="189,-128 193,-128 193,-124 189,-124 "/>
<polyline style="fill:none;stroke:black;" points="189,-104 193,-104 193,-100 189,-100 "/>
<text text-anchor="middle" x="216" y="-109.275" style="font-family:Times New Roman;font-size:14.00;">release</text>
</g>
<!-- 22121384&#45;&gt;22119080 -->
<g id="edge6" class="edge"><title>22121384&#45;&gt;22119080</title>
<path style="fill:none;stroke:black;" d="M153,-114C162,-114 170,-114 179,-114"/>
<polygon style="fill:black;stroke:black;" points="189,-114 179,-118.5 186,-114 179,-114 186,-114 179,-109.5 189,-114 189,-114"/>
</g>
<!-- 22118024 -->
<g id="node5" class="node"><title>22118024</title>
<polygon style="fill:lightblue;stroke:black;" points="366.876,-132 279.124,-132 279.124,-128 275.124,-128 275.124,-124 279.124,-124 279.124,-104 275.124,-104 275.124,-100 279.124,-100 279.124,-96 366.876,-96 366.876,-132"/>
<polyline style="fill:none;stroke:black;" points="279.124,-128 283.124,-128 283.124,-124 279.124,-124 "/>
<polyline style="fill:none;stroke:black;" points="279.124,-104 283.124,-104 283.124,-100 279.124,-100 "/>
<text text-anchor="middle" x="323" y="-109.275" style="font-family:Times New Roman;font-size:14.00;">run_unit_test</text>
</g>
<!-- 22119080&#45;&gt;22118024 -->
<g id="edge8" class="edge"><title>22119080&#45;&gt;22118024</title>
<path style="fill:none;stroke:black;" d="M243,-114C252,-114 260,-114 269,-114"/>
<polygon style="fill:black;stroke:black;" points="279,-114 269,-118.5 276,-114 269,-114 276,-114 269,-109.5 279,-114 279,-114"/>
</g>
<!-- 22117892 -->
<g id="node6" class="node"><title>22117892</title>
<polygon style="fill:lightblue;stroke:black;" points="488.753,-132 403.247,-132 403.247,-128 399.247,-128 399.247,-124 403.247,-124 403.247,-104 399.247,-104 399.247,-100 403.247,-100 403.247,-96 488.753,-96 488.753,-132"/>
<polyline style="fill:none;stroke:black;" points="403.247,-128 407.247,-128 407.247,-124 403.247,-124 "/>
<polyline style="fill:none;stroke:black;" points="403.247,-104 407.247,-104 407.247,-100 403.247,-100 "/>
<text text-anchor="middle" x="446" y="-109.275" style="font-family:Times New Roman;font-size:14.00;">TOPLEVEL</text>
</g>
<!-- 22118024&#45;&gt;22117892 -->
<g id="edge10" class="edge"><title>22118024&#45;&gt;22117892</title>
<path style="fill:none;stroke:black;" d="M367,-114C376,-114 384,-114 393,-114"/>
<polygon style="fill:black;stroke:black;" points="403,-114 393,-118.5 400,-114 393,-114 400,-114 393,-109.5 403,-114 403,-114"/>
</g>
<!-- 22117160 -->
<g id="node7" class="node"><title>22117160</title>
<polygon style="fill:lightblue;stroke:black;" points="621,-132 525,-132 525,-128 521,-128 521,-124 525,-124 525,-104 521,-104 521,-100 525,-100 525,-96 621,-96 621,-132"/>
<polyline style="fill:none;stroke:black;" points="525,-128 529,-128 529,-124 525,-124 "/>
<polyline style="fill:none;stroke:black;" points="525,-104 529,-104 529,-100 525,-100 "/>
<text text-anchor="middle" x="573" y="-109.275" style="font-family:Times New Roman;font-size:14.00;">generate_docs</text>
</g>
<!-- 22117892&#45;&gt;22117160 -->
<g id="edge14" class="edge"><title>22117892&#45;&gt;22117160</title>
<path style="fill:none;stroke:black;" d="M489,-114C498,-114 506,-114 515,-114"/>
<polygon style="fill:black;stroke:black;" points="525,-114 515,-118.5 522,-114 515,-114 522,-114 515,-109.5 525,-114 525,-114"/>
</g>
<!-- 22115924 -->
<g id="node8" class="node"><title>22115924</title>
<polygon style="fill:lightblue;stroke:black;" points="742.753,-132 657.247,-132 657.247,-128 653.247,-128 653.247,-124 657.247,-124 657.247,-104 653.247,-104 653.247,-100 657.247,-100 657.247,-96 742.753,-96 742.753,-132"/>
<polyline style="fill:none;stroke:black;" points="657.247,-128 661.247,-128 661.247,-124 657.247,-124 "/>
<polyline style="fill:none;stroke:black;" points="657.247,-104 661.247,-104 661.247,-100 657.247,-100 "/>
<text text-anchor="middle" x="700" y="-109.275" style="font-family:Times New Roman;font-size:14.00;">TOPLEVEL</text>
</g>
<!-- 22117160&#45;&gt;22115924 -->
<g id="edge16" class="edge"><title>22117160&#45;&gt;22115924</title>
<path style="fill:none;stroke:black;" d="M621,-114C630,-114 638,-114 647,-114"/>
<polygon style="fill:black;stroke:black;" points="657,-114 647,-118.5 654,-114 647,-114 654,-114 647,-109.5 657,-114 657,-114"/>
</g>
<!-- 22114328 -->
<g id="node9" class="node"><title>22114328</title>
<polygon style="fill:lightblue;stroke:black;" points="867,-132 779,-132 779,-128 775,-128 775,-124 779,-124 779,-104 775,-104 775,-100 779,-100 779,-96 867,-96 867,-132"/>
<polyline style="fill:none;stroke:black;" points="779,-128 783,-128 783,-124 779,-124 "/>
<polyline style="fill:none;stroke:black;" points="779,-104 783,-104 783,-100 779,-100 "/>
<text text-anchor="middle" x="823" y="-109.275" style="font-family:Times New Roman;font-size:14.00;">generate_exe</text>
</g>
<!-- 22115924&#45;&gt;22114328 -->
<g id="edge20" class="edge"><title>22115924&#45;&gt;22114328</title>
<path style="fill:none;stroke:black;" d="M743,-114C752,-114 760,-114 769,-114"/>
<polygon style="fill:black;stroke:black;" points="779,-114 769,-118.5 776,-114 769,-114 776,-114 769,-109.5 779,-114 779,-114"/>
</g>
<!-- 22114076 -->
<g id="node10" class="node"><title>22114076</title>
<polygon style="fill:lightblue;stroke:black;" points="988.753,-132 903.247,-132 903.247,-128 899.247,-128 899.247,-124 903.247,-124 903.247,-104 899.247,-104 899.247,-100 903.247,-100 903.247,-96 988.753,-96 988.753,-132"/>
<polyline style="fill:none;stroke:black;" points="903.247,-128 907.247,-128 907.247,-124 903.247,-124 "/>
<polyline style="fill:none;stroke:black;" points="903.247,-104 907.247,-104 907.247,-100 903.247,-100 "/>
<text text-anchor="middle" x="946" y="-109.275" style="font-family:Times New Roman;font-size:14.00;">make_recipe</text>
</g>
<!-- 22114328&#45;&gt;22114076 -->
<g id="edge22" class="edge"><title>22114328&#45;&gt;22114076</title>
<path style="fill:none;stroke:black;" d="M867,-114C876,-114 884,-114 893,-114"/>
<polygon style="fill:black;stroke:black;" points="903,-114 893,-118.5 900,-114 893,-114 900,-114 893,-109.5 903,-114 903,-114"/>
</g>
<!-- 22113008 -->
<g id="node11" class="node"><title>22113008</title>
<polygon style="fill:lightblue;stroke:black;" points="1086.88,-132 1025.13,-132 1025.13,-128 1021.13,-128 1021.13,-124 1025.13,-124 1025.13,-104 1021.13,-104 1021.13,-100 1025.13,-100 1025.13,-96 1086.88,-96 1086.88,-132"/>
<polyline style="fill:none;stroke:black;" points="1025.13,-128 1029.13,-128 1029.13,-124 1025.13,-124 "/>
<polyline style="fill:none;stroke:black;" points="1025.13,-104 1029.13,-104 1029.13,-100 1025.13,-100 "/>
<text text-anchor="middle" x="1056" y="-109.275" style="font-family:Times New Roman;font-size:14.00;">package</text>
</g>
<!-- 22114076&#45;&gt;22113008 -->
<g id="edge24" class="edge"><title>22114076&#45;&gt;22113008</title>
<path style="fill:none;stroke:black;" d="M989,-114C998,-114 1006,-114 1015,-114"/>
<polygon style="fill:black;stroke:black;" points="1025,-114 1015,-118.5 1022,-114 1015,-114 1022,-114 1015,-109.5 1025,-114 1025,-114"/>
</g>
<!-- 22110032 -->
<g id="node16" class="node"><title>22110032</title>
<polygon style="fill:#fff68f;stroke:black;" points="400.752,-44 267.248,-44 267.248,-48 255.248,-48 255.248,-8 400.752,-8 400.752,-44"/>
<polyline style="fill:none;stroke:black;" points="255.248,-44 267.248,-44 "/>
<text text-anchor="middle" x="328" y="-21.275" style="font-family:Times New Roman;font-size:14.00;">../anthive_v0.5.0(alpha)</text>
</g>
<!-- 22113008&#45;&gt;22110032 -->
<g id="edge26" class="edge"><title>22113008&#45;&gt;22110032</title>
<path style="fill:none;stroke:black;" d="M1025,-97C1017,-93 1007,-90 998,-88 926,-71 739,-84 664,-78 554,-68 525,-63 411,-44"/>
<polygon style="fill:black;stroke:black;" points="401,-42 411.688,-39.5486 403.942,-42.5884 410.806,-43.9612 403.942,-42.5884 409.923,-48.3739 401,-42 401,-42"/>
<text text-anchor="middle" x="948" y="-65.275" style="font-family:Times New Roman;font-size:14.00;">delete</text>
</g>
<!-- 22109696 -->
<g id="node17" class="node"><title>22109696</title>
<polygon style="fill:#fff68f;stroke:black;" points="564.752,-44 431.248,-44 431.248,-48 419.248,-48 419.248,-8 564.752,-8 564.752,-44"/>
<polyline style="fill:none;stroke:black;" points="419.248,-44 431.248,-44 "/>
<text text-anchor="middle" x="492" y="-21.275" style="font-family:Times New Roman;font-size:14.00;">../anthive_v0.5.0(alpha)</text>
</g>
<!-- 22113008&#45;&gt;22109696 -->
<g id="edge28" class="edge"><title>22113008&#45;&gt;22109696</title>
<path style="fill:none;stroke:black;" d="M1025,-97C1017,-93 1007,-90 998,-88 927,-70 906,-85 832,-78 720,-66 690,-63 575,-44"/>
<polygon style="fill:black;stroke:black;" points="565,-42 575.688,-39.5486 567.942,-42.5884 574.806,-43.9612 567.942,-42.5884 573.923,-48.3739 565,-42 565,-42"/>
<text text-anchor="middle" x="972" y="-65.275" style="font-family:Times New Roman;font-size:14.00;">mkdir</text>
</g>
<!-- 22108208 -->
<g id="node19" class="node"><title>22108208</title>
<polygon style="fill:palegreen;stroke:black;" points="794.875,-44 583.125,-44 583.125,-8 800.875,-8 800.875,-38 794.875,-44"/>
<polyline style="fill:none;stroke:black;" points="794.875,-44 794.875,-38 "/>
<polyline style="fill:none;stroke:black;" points="800.875,-38 794.875,-38 "/>
<text text-anchor="middle" x="692" y="-21.275" style="font-family:Times New Roman;font-size:14.00;">../anthive_v0.5.0(alpha)/ant&#45;hive.xml</text>
</g>
<!-- 22113008&#45;&gt;22108208 -->
<g id="edge32" class="edge"><title>22113008&#45;&gt;22108208</title>
<path style="fill:none;stroke:black;" d="M1025,-98C1017,-94 1007,-90 998,-88 970,-79 962,-83 933,-78 883,-69 825,-57 780,-46"/>
<polygon style="fill:black;stroke:black;" points="770,-44 780.688,-41.5486 772.942,-44.5884 779.806,-45.9612 772.942,-44.5884 778.923,-50.3739 770,-44 770,-44"/>
<text text-anchor="middle" x="964" y="-65.275" style="font-family:Times New Roman;font-size:14.00;">copy</text>
</g>
<!-- 22105292 -->
<g id="node21" class="node"><title>22105292</title>
<polygon style="fill:#fff68f;stroke:black;" points="964.752,-44 831.248,-44 831.248,-48 819.248,-48 819.248,-8 964.752,-8 964.752,-44"/>
<polyline style="fill:none;stroke:black;" points="819.248,-44 831.248,-44 "/>
<text text-anchor="middle" x="892" y="-21.275" style="font-family:Times New Roman;font-size:14.00;">../anthive_v0.5.0(alpha)</text>
</g>
<!-- 22113008&#45;&gt;22105292 -->
<g id="edge36" class="edge"><title>22113008&#45;&gt;22105292</title>
<path style="fill:none;stroke:black;" d="M1025,-97C999,-83 963,-64 935,-49"/>
<polygon style="fill:black;stroke:black;" points="926,-44 936.927,-44.9228 928.622,-45.4569 934.742,-48.8565 928.622,-45.4569 932.556,-52.7902 926,-44 926,-44"/>
<text text-anchor="middle" x="1005" y="-65.275" style="font-family:Times New Roman;font-size:14.00;">copy</text>
</g>
<!-- 22101488 -->
<g id="node23" class="node"><title>22101488</title>
<polygon style="fill:#fff68f;stroke:black;" points="1128.75,-44 995.248,-44 995.248,-48 983.248,-48 983.248,-8 1128.75,-8 1128.75,-44"/>
<polyline style="fill:none;stroke:black;" points="983.248,-44 995.248,-44 "/>
<text text-anchor="middle" x="1056" y="-21.275" style="font-family:Times New Roman;font-size:14.00;">../anthive_v0.5.0(alpha)</text>
</g>
<!-- 22113008&#45;&gt;22101488 -->
<g id="edge40" class="edge"><title>22113008&#45;&gt;22101488</title>
<path style="fill:none;stroke:black;" d="M1056,-96C1056,-84 1056,-68 1056,-54"/>
<polygon style="fill:black;stroke:black;" points="1056,-44 1060.5,-54 1056,-47 1056,-54 1056,-47 1051.5,-54 1056,-44 1056,-44"/>
<text text-anchor="middle" x="1071" y="-65.275" style="font-family:Times New Roman;font-size:14.00;">copy</text>
</g>
<!-- 22098092 -->
<g id="node25" class="node"><title>22098092</title>
<polygon style="fill:#fff68f;stroke:black;" points="1292.75,-44 1159.25,-44 1159.25,-48 1147.25,-48 1147.25,-8 1292.75,-8 1292.75,-44"/>
<polyline style="fill:none;stroke:black;" points="1147.25,-44 1159.25,-44 "/>
<text text-anchor="middle" x="1220" y="-21.275" style="font-family:Times New Roman;font-size:14.00;">../anthive_v0.5.0(alpha)</text>
</g>
<!-- 22113008&#45;&gt;22098092 -->
<g id="edge44" class="edge"><title>22113008&#45;&gt;22098092</title>
<path style="fill:none;stroke:black;" d="M1087,-97C1113,-83 1149,-64 1177,-49"/>
<polygon style="fill:black;stroke:black;" points="1186,-44 1179.44,-52.7902 1183.38,-45.4569 1177.26,-48.8565 1183.38,-45.4569 1175.07,-44.9228 1186,-44 1186,-44"/>
<text text-anchor="middle" x="1164" y="-65.275" style="font-family:Times New Roman;font-size:14.00;">copy</text>
</g>
<!-- 22092752 -->
<g id="node27" class="node"><title>22092752</title>
<polygon style="fill:#fff68f;stroke:black;" points="1519,-44 1323,-44 1323,-48 1311,-48 1311,-8 1519,-8 1519,-44"/>
<polyline style="fill:none;stroke:black;" points="1311,-44 1323,-44 "/>
<text text-anchor="middle" x="1415" y="-21.275" style="font-family:Times New Roman;font-size:14.00;">../anthive_v0.5.0(alpha)/generators</text>
</g>
<!-- 22113008&#45;&gt;22092752 -->
<g id="edge48" class="edge"><title>22113008&#45;&gt;22092752</title>
<path style="fill:none;stroke:black;" d="M1087,-106C1141,-93 1253,-65 1331,-46"/>
<polygon style="fill:black;stroke:black;" points="1341,-44 1332.08,-50.3739 1338.06,-44.5884 1331.19,-45.9612 1338.06,-44.5884 1330.31,-41.5486 1341,-44 1341,-44"/>
<text text-anchor="middle" x="1273" y="-65.275" style="font-family:Times New Roman;font-size:14.00;">copy</text>
</g>
<!-- 22089968 -->
<g id="node29" class="node"><title>22089968</title>
<polygon style="fill:#fff68f;stroke:black;" points="1745,-44 1549,-44 1549,-48 1537,-48 1537,-8 1745,-8 1745,-44"/>
<polyline style="fill:none;stroke:black;" points="1537,-44 1549,-44 "/>
<text text-anchor="middle" x="1641" y="-21.275" style="font-family:Times New Roman;font-size:14.00;">../anthive_v0.5.0(alpha)/generators</text>
</g>
<!-- 22113008&#45;&gt;22089968 -->
<g id="edge52" class="edge"><title>22113008&#45;&gt;22089968</title>
<path style="fill:none;stroke:black;" d="M1087,-110C1162,-99 1354,-70 1527,-44"/>
<polygon style="fill:black;stroke:black;" points="1537,-43 1527.5,-48.4728 1534.01,-43.2985 1527.05,-43.9951 1534.01,-43.2985 1526.6,-39.5175 1537,-43 1537,-43"/>
<text text-anchor="middle" x="1415" y="-65.275" style="font-family:Times New Roman;font-size:14.00;">copy</text>
</g>
<!-- 21851556 -->
<g id="node31" class="node"><title>21851556</title>
<polygon style="fill:palegreen;stroke:black;" points="1920.75,-44 1763.25,-44 1763.25,-8 1926.75,-8 1926.75,-38 1920.75,-44"/>
<polyline style="fill:none;stroke:black;" points="1920.75,-44 1920.75,-38 "/>
<polyline style="fill:none;stroke:black;" points="1926.75,-38 1920.75,-38 "/>
<text text-anchor="middle" x="1845" y="-21.275" style="font-family:Times New Roman;font-size:14.00;">../anthive_v0.5.0(alpha).tar</text>
</g>
<!-- 22113008&#45;&gt;21851556 -->
<g id="edge56" class="edge"><title>22113008&#45;&gt;21851556</title>
<path style="fill:none;stroke:black;" d="M1087,-111C1202,-101 1602,-66 1753,-44"/>
<polygon style="fill:black;stroke:black;" points="1763,-42 1754.08,-48.3739 1760.06,-42.5884 1753.19,-43.9612 1760.06,-42.5884 1752.31,-39.5486 1763,-42 1763,-42"/>
<text text-anchor="middle" x="1594" y="-65.275" style="font-family:Times New Roman;font-size:14.00;">tar</text>
</g>
<!-- 22119836 -->
<g id="node13" class="node"><title>22119836</title>
<polygon style="fill:palegreen;stroke:black;" points="141.877,-242 72.1234,-242 72.1234,-206 147.877,-206 147.877,-236 141.877,-242"/>
<polyline style="fill:none;stroke:black;" points="141.877,-242 141.877,-236 "/>
<polyline style="fill:none;stroke:black;" points="147.877,-236 141.877,-236 "/>
<text text-anchor="middle" x="110" y="-219.275" style="font-family:Times New Roman;font-size:14.00;">VERSION</text>
</g>
<!-- 22119836&#45;&gt;22121384 -->
<g id="edge4" class="edge"><title>22119836&#45;&gt;22121384</title>
<path style="fill:none;stroke:black;" d="M110,-206C110,-189 110,-163 110,-142"/>
<polygon style="fill:black;stroke:black;" points="110,-132 114.5,-142 110,-135 110,-142 110,-135 105.5,-142 110,-132 110,-132"/>
<text text-anchor="middle" x="152" y="-175.275" style="font-family:Times New Roman;font-size:14.00;">load properties</text>
</g>
<!-- 22117628 -->
<g id="node14" class="node"><title>22117628</title>
<polygon style="fill:palegreen;stroke:black;" points="477.877,-242 408.123,-242 408.123,-206 483.877,-206 483.877,-236 477.877,-242"/>
<polyline style="fill:none;stroke:black;" points="477.877,-242 477.877,-236 "/>
<polyline style="fill:none;stroke:black;" points="483.877,-236 477.877,-236 "/>
<text text-anchor="middle" x="446" y="-219.275" style="font-family:Times New Roman;font-size:14.00;">VERSION</text>
</g>
<!-- 22117628&#45;&gt;22117892 -->
<g id="edge12" class="edge"><title>22117628&#45;&gt;22117892</title>
<path style="fill:none;stroke:black;" d="M446,-206C446,-189 446,-163 446,-142"/>
<polygon style="fill:black;stroke:black;" points="446,-132 450.5,-142 446,-135 446,-142 446,-135 441.5,-142 446,-132 446,-132"/>
<text text-anchor="middle" x="488" y="-175.275" style="font-family:Times New Roman;font-size:14.00;">load properties</text>
</g>
<!-- 22115468 -->
<g id="node15" class="node"><title>22115468</title>
<polygon style="fill:palegreen;stroke:black;" points="691.877,-242 622.123,-242 622.123,-206 697.877,-206 697.877,-236 691.877,-242"/>
<polyline style="fill:none;stroke:black;" points="691.877,-242 691.877,-236 "/>
<polyline style="fill:none;stroke:black;" points="697.877,-236 691.877,-236 "/>
<text text-anchor="middle" x="660" y="-219.275" style="font-family:Times New Roman;font-size:14.00;">VERSION</text>
</g>
<!-- 22115468&#45;&gt;22115924 -->
<g id="edge18" class="edge"><title>22115468&#45;&gt;22115924</title>
<path style="fill:none;stroke:black;" d="M664,-206C666,-196 670,-183 673,-172 677,-162 682,-150 686,-141"/>
<polygon style="fill:black;stroke:black;" points="691,-132 690.077,-142.927 689.543,-134.622 686.144,-140.742 689.543,-134.622 682.21,-138.556 691,-132 691,-132"/>
<text text-anchor="middle" x="715" y="-175.275" style="font-family:Times New Roman;font-size:14.00;">load properties</text>
</g>
<!-- 22108220 -->
<g id="node18" class="node"><title>22108220</title>
<polygon style="fill:palegreen;stroke:black;" points="836.125,-242 715.875,-242 715.875,-206 842.125,-206 842.125,-236 836.125,-242"/>
<polyline style="fill:none;stroke:black;" points="836.125,-242 836.125,-236 "/>
<polyline style="fill:none;stroke:black;" points="842.125,-236 836.125,-236 "/>
<text text-anchor="middle" x="779" y="-219.275" style="font-family:Times New Roman;font-size:14.00;">ant&#45;hive.xml.sample</text>
</g>
<!-- 22108220&#45;&gt;22113008 -->
<g id="edge30" class="edge"><title>22108220&#45;&gt;22113008</title>
<path style="fill:none;stroke:black;" d="M823,-206C853,-194 894,-180 931,-172 961,-165 971,-176 998,-164 1011,-158 1024,-149 1033,-139"/>
<polygon style="fill:black;stroke:black;" points="1040,-132 1036.11,-142.253 1037.88,-134.121 1032.93,-139.071 1037.88,-134.121 1029.75,-135.889 1040,-132 1040,-132"/>
<text text-anchor="middle" x="946" y="-175.275" style="font-family:Times New Roman;font-size:14.00;">copy</text>
</g>
<!-- 22105316 -->
<g id="node20" class="node"><title>22105316</title>
<polygon style="fill:palegreen;stroke:black;" points="936,-242 860,-242 860,-206 942,-206 942,-236 936,-242"/>
<polyline style="fill:none;stroke:black;" points="936,-242 936,-236 "/>
<polyline style="fill:none;stroke:black;" points="942,-236 936,-236 "/>
<text text-anchor="middle" x="901" y="-219.275" style="font-family:Times New Roman;font-size:14.00;">ant&#45;hive.exe</text>
</g>
<!-- 22105316&#45;&gt;22113008 -->
<g id="edge34" class="edge"><title>22105316&#45;&gt;22113008</title>
<path style="fill:none;stroke:black;" d="M933,-206C952,-194 977,-179 998,-164 1009,-156 1020,-147 1029,-139"/>
<polygon style="fill:black;stroke:black;" points="1036,-132 1032.11,-142.253 1033.88,-134.121 1028.93,-139.071 1033.88,-134.121 1025.75,-135.889 1036,-132 1036,-132"/>
<text text-anchor="middle" x="999" y="-175.275" style="font-family:Times New Roman;font-size:14.00;">copy</text>
</g>
<!-- 22101596 -->
<g id="node22" class="node"><title>22101596</title>
<polygon style="fill:palegreen;stroke:black;" points="1032.13,-242 959.875,-242 959.875,-206 1038.13,-206 1038.13,-236 1032.13,-242"/>
<polyline style="fill:none;stroke:black;" points="1032.13,-242 1032.13,-236 "/>
<polyline style="fill:none;stroke:black;" points="1038.13,-236 1032.13,-236 "/>
<text text-anchor="middle" x="999" y="-219.275" style="font-family:Times New Roman;font-size:14.00;">sample.svg</text>
</g>
<!-- 22101596&#45;&gt;22113008 -->
<g id="edge38" class="edge"><title>22101596&#45;&gt;22113008</title>
<path style="fill:none;stroke:black;" d="M1008,-206C1018,-189 1032,-162 1042,-141"/>
<polygon style="fill:black;stroke:black;" points="1047,-132 1046.08,-142.927 1045.54,-134.622 1042.14,-140.742 1045.54,-134.622 1038.21,-138.556 1047,-132 1047,-132"/>
<text text-anchor="middle" x="1040" y="-175.275" style="font-family:Times New Roman;font-size:14.00;">copy</text>
</g>
<!-- 22098104 -->
<g id="node24" class="node"><title>22098104</title>
<polygon style="fill:palegreen;stroke:black;" points="1127.75,-242 1056.25,-242 1056.25,-206 1133.75,-206 1133.75,-236 1127.75,-242"/>
<polyline style="fill:none;stroke:black;" points="1127.75,-242 1127.75,-236 "/>
<polyline style="fill:none;stroke:black;" points="1133.75,-236 1127.75,-236 "/>
<text text-anchor="middle" x="1095" y="-219.275" style="font-family:Times New Roman;font-size:14.00;">sample.dot</text>
</g>
<!-- 22098104&#45;&gt;22113008 -->
<g id="edge42" class="edge"><title>22098104&#45;&gt;22113008</title>
<path style="fill:none;stroke:black;" d="M1089,-206C1082,-189 1073,-162 1066,-142"/>
<polygon style="fill:black;stroke:black;" points="1062,-132 1069.89,-139.613 1063.11,-134.785 1065.71,-141.285 1063.11,-134.785 1061.54,-142.956 1062,-132 1062,-132"/>
<text text-anchor="middle" x="1099" y="-175.275" style="font-family:Times New Roman;font-size:14.00;">copy</text>
</g>
<!-- 22092812 -->
<g id="node26" class="node"><title>22092812</title>
<polygon style="fill:palegreen;stroke:black;" points="1268.12,-242 1151.88,-242 1151.88,-206 1274.12,-206 1274.12,-236 1268.12,-242"/>
<polyline style="fill:none;stroke:black;" points="1268.12,-242 1268.12,-236 "/>
<polyline style="fill:none;stroke:black;" points="1274.12,-236 1268.12,-236 "/>
<text text-anchor="middle" x="1213" y="-219.275" style="font-family:Times New Roman;font-size:14.00;">generators/map.erb</text>
</g>
<!-- 22092812&#45;&gt;22113008 -->
<g id="edge46" class="edge"><title>22092812&#45;&gt;22113008</title>
<path style="fill:none;stroke:black;" d="M1187,-206C1161,-188 1119,-159 1090,-138"/>
<polygon style="fill:black;stroke:black;" points="1082,-132 1092.7,-134.4 1084.4,-133.8 1090,-138 1084.4,-133.8 1087.3,-141.6 1082,-132 1082,-132"/>
<text text-anchor="middle" x="1178" y="-175.275" style="font-family:Times New Roman;font-size:14.00;">copy</text>
</g>
<!-- 22090088 -->
<g id="node28" class="node"><title>22090088</title>
<polygon style="fill:palegreen;stroke:black;" points="1426.12,-242 1291.88,-242 1291.88,-206 1432.12,-206 1432.12,-236 1426.12,-242"/>
<polyline style="fill:none;stroke:black;" points="1426.12,-242 1426.12,-236 "/>
<polyline style="fill:none;stroke:black;" points="1432.12,-236 1426.12,-236 "/>
<text text-anchor="middle" x="1362" y="-219.275" style="font-family:Times New Roman;font-size:14.00;">generators/template.xlt</text>
</g>
<!-- 22090088&#45;&gt;22113008 -->
<g id="edge50" class="edge"><title>22090088&#45;&gt;22113008</title>
<path style="fill:none;stroke:black;" d="M1312,-206C1252,-184 1152,-148 1097,-128"/>
<polygon style="fill:black;stroke:black;" points="1087,-125 1097.87,-123.563 1089.87,-125.862 1096.58,-127.874 1089.87,-125.862 1095.29,-132.184 1087,-125 1087,-125"/>
<text text-anchor="middle" x="1279" y="-175.275" style="font-family:Times New Roman;font-size:14.00;">copy</text>
</g>
<!-- 21856116 -->
<g id="node30" class="node"><title>21856116</title>
<polygon style="fill:#fff68f;stroke:black;" points="1595.75,-242 1462.25,-242 1462.25,-246 1450.25,-246 1450.25,-206 1595.75,-206 1595.75,-242"/>
<polyline style="fill:none;stroke:black;" points="1450.25,-242 1462.25,-242 "/>
<text text-anchor="middle" x="1523" y="-219.275" style="font-family:Times New Roman;font-size:14.00;">../anthive_v0.5.0(alpha)</text>
</g>
<!-- 21856116&#45;&gt;22113008 -->
<g id="edge54" class="edge"><title>21856116&#45;&gt;22113008</title>
<path style="fill:none;stroke:black;" d="M1450,-207C1351,-184 1177,-143 1097,-123"/>
<polygon style="fill:black;stroke:black;" points="1087,-121 1097.69,-118.549 1089.94,-121.588 1096.81,-122.961 1089.94,-121.588 1095.92,-127.374 1087,-121 1087,-121"/>
<text text-anchor="middle" x="1381" y="-175.275" style="font-family:Times New Roman;font-size:14.00;">tar</text>
</g>
</g>
</svg>
